<svg width="15" height="14" viewBox="0 0 15 14" fill="none" xmlns="http://www.w3.org/2000/svg">
<path d="M5.74991 10.0006H4.24987V0.50038C4.24987 0.367768 4.19719 0.240587 4.10342 0.146817C4.00965 0.053046 3.88247 0.000366214 3.74986 0.000366214H2.74983C2.61722 0.000366214 2.49004 0.053046 2.39627 0.146817C2.3025 0.240587 2.24982 0.367768 2.24982 0.50038V10.0006H0.749777C0.306327 10.0006 0.0822588 10.5394 0.396955 10.8541L2.89702 13.8542C2.99078 13.9479 3.11791 14.0005 3.25047 14.0005C3.38302 14.0005 3.51015 13.9479 3.60392 13.8542L6.10398 10.8541C6.41712 10.54 6.1943 10.0006 5.74991 10.0006ZM13.2501 8.00058H9.25C9.11739 8.00058 8.99021 8.05326 8.89644 8.14703C8.80267 8.2408 8.74999 8.36798 8.74999 8.50059V9.50062C8.74999 9.63323 8.80267 9.76041 8.89644 9.85418C8.99021 9.94796 9.11739 10.0006 9.25 10.0006H11.0001L9.08562 12.2023C8.98007 12.2961 8.89558 12.4112 8.83773 12.5401C8.77988 12.6689 8.74998 12.8085 8.74999 12.9498V13.5007C8.74999 13.6333 8.80267 13.7605 8.89644 13.8543C8.99021 13.9481 9.11739 14.0007 9.25 14.0007H13.2501C13.3827 14.0007 13.5099 13.9481 13.6037 13.8543C13.6974 13.7605 13.7501 13.6333 13.7501 13.5007V12.5007C13.7501 12.3681 13.6974 12.2409 13.6037 12.1471C13.5099 12.0534 13.3827 12.0007 13.2501 12.0007H11.5001L13.4145 9.79907C13.5201 9.70523 13.6045 9.59011 13.6624 9.46126C13.7202 9.33242 13.7501 9.19278 13.7501 9.05155V8.50059C13.7501 8.36798 13.6974 8.2408 13.6037 8.14703C13.5099 8.05326 13.3827 8.00058 13.2501 8.00058ZM14.2208 5.33238L12.3685 0.33225C12.3338 0.235111 12.27 0.151075 12.1857 0.0916594C12.1013 0.0322435 12.0007 0.000355669 11.8976 0.000366214H10.6025C10.4994 0.000355669 10.3988 0.0322435 10.3145 0.0916594C10.2301 0.151075 10.1663 0.235111 10.1316 0.33225L8.27935 5.33238C8.25242 5.40782 8.244 5.48863 8.25481 5.56799C8.26562 5.64736 8.29534 5.72297 8.34147 5.78846C8.3876 5.85394 8.44879 5.90739 8.51988 5.94429C8.59097 5.9812 8.66989 6.00049 8.74999 6.00053H9.52595C9.63171 6.00056 9.73475 5.96706 9.82027 5.90485C9.90579 5.84263 9.96938 5.7549 10.0019 5.65427L10.14 5.25051H12.3588L12.4967 5.65427C12.5292 5.7551 12.593 5.84298 12.6788 5.90522C12.7646 5.96745 12.8679 6.00083 12.9739 6.00053H13.7501C13.8302 6.00049 13.9091 5.9812 13.9802 5.94429C14.0513 5.90739 14.1125 5.85394 14.1586 5.78846C14.2048 5.72297 14.2345 5.64736 14.2453 5.56799C14.2561 5.48863 14.2477 5.40782 14.2208 5.33238ZM10.7379 3.50046L11.2501 2.00042L11.7623 3.50046H10.7379Z" fill="currentColor"/>
</svg>
