<svg width="15" height="14" viewBox="0 0 15 14" fill="none" xmlns="http://www.w3.org/2000/svg">
<path d="M0.589279 4.04832L6.95867 6.93771C7.14461 7.0222 7.35488 7.0222 7.54081 6.93771L13.9102 4.04832C14.3627 3.84297 14.3627 3.15911 13.9102 2.95376L7.54109 0.0641C7.44973 0.022344 7.35046 0.000732422 7.25002 0.000732422C7.14957 0.000732422 7.0503 0.022344 6.95894 0.0641L0.589279 2.95349C0.136744 3.15884 0.136744 3.84297 0.589279 4.04832ZM13.9105 6.4622L12.3221 5.74225L7.90229 7.74571C7.69558 7.83949 7.47601 7.88707 7.24988 7.88707C7.02375 7.88707 6.80445 7.83949 6.59746 7.74571L2.17794 5.74225L0.589279 6.4622C0.136744 6.66728 0.136744 7.35087 0.589279 7.55594L6.95867 10.4431C7.14461 10.5274 7.35488 10.5274 7.54081 10.4431L13.9105 7.55594C14.363 7.35087 14.363 6.66728 13.9105 6.4622ZM13.9105 9.9567L12.3281 9.23948L7.90229 11.2457C7.69558 11.3395 7.47601 11.387 7.24988 11.387C7.02375 11.387 6.80445 11.3395 6.59746 11.2457L2.17192 9.23948L0.589279 9.9567C0.136744 10.1618 0.136744 10.8454 0.589279 11.0504L6.95867 13.9376C7.14461 14.0219 7.35488 14.0219 7.54081 13.9376L13.9105 11.0504C14.363 10.8454 14.363 10.1618 13.9105 9.9567Z" fill="currentColor"/>
</svg>
